<?xml version="1.0" standalone="no"?>
<!DOCTYPE svg PUBLIC "-//W3C//DTD SVG 20010904//EN"
 "http://www.w3.org/TR/2001/REC-SVG-20010904/DTD/svg10.dtd">
<svg version="1.0" xmlns="http://www.w3.org/2000/svg"
 width="502.000000pt" height="436.000000pt" viewBox="0 0 502.000000 436.000000"
 preserveAspectRatio="xMidYMid meet">

<g transform="translate(0.000000,436.000000) scale(0.100000,-0.100000)"
fill="#000000" stroke="none">
<path d="M0 2180 l0 -2180 2510 0 2510 0 0 2180 0 2180 -2510 0 -2510 0 0
-2180z m2565 1941 c48 -21 90 -69 118 -130 30 -68 21 -162 -21 -223 -94 -136
-264 -135 -356 1 -25 37 -30 57 -34 120 -3 68 -1 82 25 130 31 60 58 85 119
106 53 19 101 18 149 -4z m-584 -214 c18 -12 47 -41 63 -65 57 -81 43 -234
-25 -264 l-29 -13 5 -210 c3 -115 5 -213 5 -216 0 -3 75 67 166 155 223 216
287 263 337 251 22 -6 134 -103 342 -299 63 -60 117 -107 120 -104 2 2 5 97 5
211 l2 208 -27 21 c-85 67 -70 251 25 314 67 45 153 41 208 -10 38 -34 72
-110 72 -161 0 -77 -54 -155 -117 -171 -23 -6 -23 -7 -22 -158 1 -83 4 -204 8
-268 l6 -116 58 -51 c32 -28 63 -51 69 -51 6 0 77 67 158 150 l147 149 -4 68
c-6 82 19 147 75 193 39 32 118 54 160 44 143 -35 229 -186 176 -312 -42 -102
-170 -165 -259 -128 -21 9 -45 16 -54 16 -15 0 -281 -277 -290 -302 -5 -16 59
-77 93 -87 59 -19 189 -31 331 -31 l143 0 21 43 c30 62 79 91 160 95 81 4 117
-15 162 -85 27 -43 30 -55 27 -109 -6 -106 -73 -175 -181 -190 -54 -8 -92 10
-141 67 l-35 42 -63 -6 c-35 -4 -153 -7 -263 -8 l-200 0 3 -142 c4 -206 3
-203 59 -211 25 -3 185 -6 354 -6 l309 0 25 50 c31 61 90 99 169 107 76 8 156
-30 196 -94 50 -78 49 -184 -1 -258 -48 -70 -158 -110 -236 -87 -45 13 -111
72 -124 111 l-9 27 -369 3 -368 2 0 -164 -1 -165 45 -6 c25 -3 140 -6 255 -6
l210 0 39 34 c50 42 115 60 167 46 79 -21 161 -120 162 -195 0 -76 -47 -158
-111 -191 -41 -21 -127 -18 -166 6 -41 25 -93 96 -93 127 l0 23 -194 0 c-106
0 -221 3 -255 6 l-61 7 0 -112 0 -112 91 -102 c50 -56 102 -111 116 -121 24
-18 27 -18 72 -3 77 28 143 19 209 -30 62 -46 93 -153 68 -235 -56 -187 -278
-231 -382 -76 -45 66 -52 142 -20 219 5 11 -7 25 -41 49 -26 19 -76 62 -112
95 -37 34 -88 76 -116 95 -27 18 -56 40 -63 48 -9 12 -31 16 -77 17 l-65 0 0
-270 c0 -148 4 -275 8 -281 4 -6 16 -14 27 -18 25 -7 89 -88 110 -139 53 -128
-49 -247 -201 -235 -39 3 -61 11 -80 29 -30 28 -59 81 -67 125 -7 39 15 139
37 163 18 20 20 107 9 435 l-6 197 -187 -3 -187 -3 -6 -345 c-3 -208 -1 -352
4 -362 5 -10 16 -18 24 -18 7 0 34 -20 59 -45 70 -71 85 -159 42 -250 -29 -61
-80 -112 -127 -125 -152 -44 -282 61 -282 227 -1 95 55 190 131 225 4 2 6 160
4 351 l-3 348 -197 -7 c-108 -4 -198 -7 -199 -8 -1 -1 -3 -135 -3 -297 l-1
-294 26 -49 c27 -54 34 -132 14 -183 -24 -64 -99 -113 -173 -113 -35 0 -54 7
-87 33 -57 44 -79 88 -79 160 0 97 43 171 107 183 l33 6 2 209 c1 115 3 242 3
282 l0 72 -75 -3 -74 -3 -96 -92 c-52 -51 -126 -114 -163 -142 -59 -43 -67
-53 -62 -75 20 -89 18 -109 -15 -176 -73 -149 -240 -173 -347 -51 -93 106 -73
276 40 341 57 33 92 38 157 25 95 -20 88 -24 216 111 l119 125 -3 93 -3 92
-168 0 c-92 0 -202 3 -243 6 l-74 7 -30 -59 c-36 -74 -88 -104 -175 -104 -49
0 -63 5 -100 32 -58 45 -82 96 -82 170 1 50 6 68 30 102 78 111 197 122 305
27 l36 -31 251 0 251 0 0 170 0 170 -252 0 c-139 0 -304 3 -365 7 -86 5 -113
3 -113 -6 0 -23 -61 -101 -89 -116 -123 -63 -258 -17 -311 107 -17 40 -21 64
-17 104 13 129 96 204 225 204 50 0 66 -5 101 -31 24 -16 55 -50 69 -73 l27
-43 194 -6 c107 -4 270 -7 363 -7 l169 0 -3 173 c-2 99 -7 175 -13 179 -5 4
-98 8 -205 9 -107 0 -222 4 -255 8 l-60 8 -35 -37 c-19 -20 -56 -45 -82 -55
-64 -24 -120 -9 -177 47 -49 49 -65 92 -59 169 8 106 85 173 190 166 76 -4
128 -39 159 -106 l24 -50 196 -1 196 0 79 72 c43 39 80 75 82 78 1 4 -12 19
-30 33 -18 14 -78 69 -133 122 -133 129 -133 129 -178 110 -68 -28 -139 -12
-202 46 -114 105 -95 293 35 359 91 47 180 34 246 -35 59 -61 79 -127 65 -208
l-11 -61 68 -60 c37 -33 106 -98 154 -144 l87 -84 78 70 78 71 3 263 3 263
-37 20 c-21 11 -51 37 -67 57 -63 79 -27 221 68 275 54 30 121 30 166 0z"/>
<path d="M2415 3985 c-20 -19 -25 -34 -25 -74 0 -67 28 -101 91 -108 42 -5 48
-3 72 27 37 44 38 120 2 155 -34 35 -106 35 -140 0z"/>
<path d="M1855 3795 c-35 -34 -34 -86 1 -114 54 -42 104 -13 104 59 0 74 -57
104 -105 55z"/>
<path d="M3026 3794 c-43 -43 -43 -79 1 -114 36 -28 67 -25 97 11 31 37 33 58
5 93 -24 30 -78 36 -103 10z"/>
<path d="M1145 3391 c-40 -17 -60 -51 -59 -99 1 -38 6 -50 33 -74 66 -59 148
-26 158 65 5 38 1 48 -23 76 -31 33 -76 46 -109 32z"/>
<path d="M3689 3371 c-47 -48 -36 -125 23 -161 44 -26 79 -25 111 4 52 48 44
130 -15 166 -47 28 -84 26 -119 -9z"/>
<path d="M2451 3333 c-17 -21 -67 -69 -112 -108 -163 -139 -266 -230 -364
-320 -102 -93 -234 -203 -292 -244 -18 -12 -33 -25 -33 -29 0 -4 14 -15 30
-24 l30 -17 0 -576 0 -575 633 0 c347 0 695 -3 773 -7 l140 -6 -1 577 -1 578
29 14 c15 9 27 19 25 24 -2 5 -52 50 -113 101 -60 50 -135 117 -165 148 -30
31 -88 86 -129 122 -130 112 -183 161 -297 271 -60 60 -113 108 -117 108 -3 0
-20 -17 -36 -37z m-47 -862 c3 -9 8 -58 11 -110 l7 -93 -123 7 c-68 4 -127 9
-130 11 -12 7 -21 186 -11 193 6 3 62 6 126 7 97 0 117 -2 120 -15z m391 -23
c3 -24 5 -74 3 -113 l-3 -70 -123 0 -123 0 3 105 3 105 70 6 c39 3 91 6 117 7
l47 2 6 -42z m-382 -461 c5 -60 6 -111 2 -115 -12 -12 -239 -1 -247 11 -4 7
-8 56 -8 109 l0 97 83 4 c45 2 100 3 122 3 l40 -1 8 -108z m370 100 c15 -10
17 -27 15 -117 l-3 -105 -120 1 -120 2 -3 116 -3 116 109 0 c71 0 114 -4 125
-13z"/>
<path d="M791 2696 c-7 -8 -15 -30 -18 -49 -4 -29 -1 -40 20 -61 35 -35 69
-33 100 4 21 24 24 35 17 63 -4 19 -10 40 -14 46 -10 16 -91 14 -105 -3z"/>
<path d="M4062 2677 c-43 -45 -15 -127 44 -127 37 0 74 37 74 76 0 67 -73 99
-118 51z"/>
<path d="M4310 2192 c-64 -31 -80 -109 -33 -156 33 -34 65 -42 104 -26 58 25
79 117 37 163 -31 34 -67 40 -108 19z"/>
<path d="M551 2166 c-12 -13 -25 -42 -28 -65 -5 -35 -2 -44 25 -71 29 -28 50
-35 97 -30 69 7 92 126 32 172 -34 27 -98 23 -126 -6z"/>
<path d="M815 1625 c-33 -32 -32 -70 2 -101 40 -37 69 -41 99 -13 30 28 32 76
3 113 -27 34 -71 35 -104 1z"/>
<path d="M4046 1629 c-36 -29 -36 -76 2 -112 35 -34 72 -34 102 -2 29 31 29
79 -1 111 -28 30 -68 31 -103 3z"/>
<path d="M1106 965 c-40 -37 -37 -96 8 -141 45 -45 95 -47 137 -5 66 67 16
171 -82 171 -24 0 -45 -8 -63 -25z"/>
<path d="M3699 961 c-33 -34 -38 -75 -14 -121 31 -60 107 -70 149 -19 37 44
37 119 0 148 -41 32 -98 28 -135 -8z"/>
<path d="M1868 603 c-9 -2 -27 -20 -39 -39 -25 -41 -17 -72 26 -100 21 -14 30
-14 55 -4 55 23 67 84 25 125 -24 25 -33 27 -67 18z"/>
<path d="M3021 574 c-25 -32 -27 -76 -5 -95 18 -15 92 -13 111 3 16 13 17 72
3 99 -17 30 -83 26 -109 -7z"/>
<path d="M2421 435 c-45 -51 -44 -104 3 -151 19 -19 44 -34 55 -34 35 0 79 28
96 60 25 49 19 88 -19 126 -48 48 -92 47 -135 -1z"/>
</g>
</svg>
